FFmpeg version SVN-r25716, Copyright (c) 2000-2010 the FFmpeg developers  built on Nov 10 2010 12:23:18 with gcc 4.1.2 20080704 (Red Hat 4.1.2-48)  configuration: --enable-libmp3lame --enable-shared --disable-mmx --arch=x86_64  libavutil     50.33. 0 / 50.33. 0  libavcore      0.12. 1 /  0.12. 1  libavcodec    52.94. 4 / 52.94. 4  libavformat   52.84. 0 / 52.84. 0  libavdevice   52. 2. 2 / 52. 2. 2  libavfilter    1.59. 0 /  1.59. 0  libswscale     0.12. 0 /  0.12. 0Seems stream 0 codec frame rate differs from container frame rate: 1000.00 (1000/1) -> 10.00 (10/1)Input #0, mov,mp4,m4a,3gp,3g2,mj2, from '/RAID10/data/converted_video_files/25362.mov':  Metadata:    major_brand     : qt      minor_version   : 537199360    compatible_brands: qt    Duration: 00:01:02.59, start: -8.494000, bitrate: 54 kb/s    Stream #0.0(eng): Video: svq3, yuvj420p, 351x499, 53 kb/s, 10 fps, 10 tbr, 1k tbn, 1k tbc[buffer @ 0xa607510] w:351 h:499 pixfmt:yuvj420p[ffsink @ 0xa624350] auto-inserting filter 'auto-inserted scaler 0' between the filter 'src' and the filter 'out'[scale @ 0xa624670] w:351 h:499 fmt:yuvj420p -> w:351 h:499 fmt:yuv420p flags:0x4Output #0, flv, to '/RAID10/data/converted_video_files/25362.flv':  Metadata:    encoder         : Lavf52.84.0    Stream #0.0(eng): Video: flv, yuv420p, 351x499, q=2-31, 600 kb/s, 1k tbn, 24 tbcStream mapping:  Stream #0.0 -> #0.0Press [q] to stop encodingframe=  105 fps=  0 q=2.0 size=     342kB time=10.46 bitrate= 268.0kbits/s    frame=  197 fps=190 q=2.0 size=     801kB time=19.62 bitrate= 334.4kbits/s    frame=  283 fps=185 q=2.0 size=    1255kB time=28.25 bitrate= 364.0kbits/s    frame=  373 fps=183 q=1.6 size=    1688kB time=37.25 bitrate= 371.3kbits/s    frame=  463 fps=183 q=2.0 size=    2087kB time=46.25 bitrate= 369.7kbits/s    frame=  557 fps=183 q=2.0 size=    2505kB time=55.62 bitrate= 368.9kbits/s    frame=  626 fps=184 q=2.0 Lsize=    2772kB time=62.54 bitrate= 363.0kbits/s    video:2762kB audio:0kB global headers:0kB muxing overhead 0.361607%